<svg width="220" height="220" viewBox="0 0 220 220" fill="none" xmlns="http://www.w3.org/2000/svg">
<circle cx="110" cy="110" r="110" fill="#4E4E4E"/>
<rect x="60.9918" y="50.7009" width="10" height="136" rx="2" transform="rotate(-30 60.9918 50.7009)" fill="#0074FD"/>
<rect x="170.855" y="158.186" width="10" height="42.0332" rx="2" transform="rotate(90 170.855 158.186)" fill="#0074FD"/>
<rect x="59.2598" y="51.7009" width="10" height="138" rx="2" transform="rotate(-30 59.2598 51.7009)" fill="#378EF4"/>
<path d="M168.816 160.418C169.921 160.418 170.816 161.314 170.816 162.418L170.816 168.418C170.816 169.523 169.921 170.418 168.816 170.418L128.956 170.418L128.956 162.418C128.956 161.314 129.851 160.418 130.956 160.418L168.816 160.418Z" fill="#378EF4"/>
<path d="M60.2598 53.433C59.7075 52.4764 60.0352 51.2532 60.9918 50.7009L67.92 46.7009C68.8766 46.1486 70.0998 46.4764 70.6521 47.433L83.6521 69.9496C84.2044 70.9062 83.8766 72.1294 82.92 72.6817L74.2598 77.6817L60.2598 53.433Z" fill="white"/>
<rect x="135.085" y="158.034" width="32.791" height="12.4353" fill="white"/>
<rect x="135.071" y="158.027" width="32.7807" height="2.39258" fill="#E7E7E7"/>
<path d="M67.92 46.7009V46.7009C68.8766 46.1486 70.0998 46.4764 70.6521 47.433L83.6521 69.9496C84.2043 70.9062 83.8766 72.1294 82.92 72.6817V72.6817L67.92 46.7009Z" fill="#E7E7E7"/>
<rect width="10" height="136" rx="2" transform="matrix(-0.866025 -0.5 -0.5 0.866025 159.15 50.9279)" fill="#0074FD"/>
<rect width="10" height="42.0332" rx="2" transform="matrix(7.74287e-08 1 1 -7.74287e-08 49.2868 158.413)" fill="#0074FD"/>
<rect width="10" height="138" rx="2" transform="matrix(-0.866025 -0.5 -0.5 0.866025 160.882 51.9279)" fill="#378EF4"/>
<path d="M51.3259 160.645C50.2213 160.645 49.3259 161.541 49.3259 162.645L49.3259 168.645C49.3259 169.75 50.2213 170.645 51.3259 170.645L91.1861 170.645L91.1861 162.645C91.1861 161.541 90.2907 160.645 89.1861 160.645L51.3259 160.645Z" fill="#378EF4"/>
<path d="M159.882 53.6599C160.435 52.7033 160.107 51.4801 159.15 50.9279L152.222 46.9279C151.265 46.3756 150.042 46.7033 149.49 47.6599L136.49 70.1766C135.938 71.1332 136.265 72.3563 137.222 72.9086L145.882 77.9086L159.882 53.6599Z" fill="white"/>
<rect width="32.791" height="12.4353" transform="matrix(-1 2.58096e-08 2.58096e-08 1 85.0569 158.261)" fill="white"/>
<rect width="32.7807" height="2.39258" transform="matrix(-1 2.58096e-08 2.58096e-08 1 85.0706 158.254)" fill="#E7E7E7"/>
<path d="M152.222 46.9279V46.9279C151.265 46.3756 150.042 46.7033 149.49 47.6599L136.49 70.1766C135.938 71.1332 136.265 72.3563 137.222 72.9086V72.9086L152.222 46.9279Z" fill="#E7E7E7"/>
</svg>
