<svg width="250" height="86" viewBox="0 0 250 86" fill="none" xmlns="http://www.w3.org/2000/svg">
<path d="M14.759 22.0807C12.0683 23.2553 9.97993 25.0172 8.49398 27.3665C7.0482 29.7158 6.32531 32.5475 6.32531 35.8616C6.32531 37.4138 6.46587 38.5046 6.747 39.1338C7.02812 39.7212 7.16868 40.0568 7.16868 40.1407C5.00001 40.1407 3.3735 39.6792 2.28917 38.7563C1.24499 37.7914 0.7229 36.2182 0.7229 34.0368C0.7229 31.3519 1.76708 28.7509 3.85543 26.2338C5.98394 23.6748 8.69479 21.6192 11.988 20.067C15.2811 18.4729 18.5743 17.6758 21.8675 17.6758C22.4297 17.6758 23.2329 17.7177 24.2771 17.8016L20.4217 36.5538H29.2771L33.1325 17.8016H41.8072L32.2289 64.8709H23.5542L28.3735 41.2104H19.5181L14.6988 64.8709H6.02411L14.759 22.0807Z" fill="white"/>
<path d="M48.8578 65.1226C45.8859 65.1226 43.5365 64.3256 41.8096 62.7314C40.0827 61.1373 39.2192 58.6202 39.2192 55.1802C39.2192 52.3275 39.7815 49.1602 40.906 45.6782C42.0305 42.1963 43.8377 39.1968 46.3277 36.6797C48.8176 34.1207 51.9502 32.8412 55.7253 32.8412C60.8658 32.8412 63.4361 36.1973 63.4361 42.9094V42.9724C63.5566 43.0143 63.7775 43.0353 64.0987 43.0353C65.424 43.0353 66.9501 42.6787 68.6771 41.9655C70.404 41.2104 71.9702 40.3085 73.3759 39.2597L73.918 40.9587C72.7534 42.2592 71.2273 43.3709 69.3397 44.2938C67.4923 45.1748 65.4642 45.8041 63.2554 46.1816C62.9341 49.9992 62.1108 53.3343 60.7855 56.187C59.4602 59.0397 57.7534 61.2421 55.665 62.7943C53.5767 64.3465 51.3076 65.1226 48.8578 65.1226ZM51.2674 59.4592C52.2313 59.4592 53.1951 58.8929 54.159 57.7602C55.1228 56.5855 55.9662 55.0124 56.6891 53.0407C57.412 51.027 57.9341 48.8036 58.2554 46.3704C57.171 46.1187 56.6289 45.2377 56.6289 43.7275C56.6289 42.0075 57.2514 40.8748 58.4963 40.3294C58.416 38.9451 58.2152 38.0012 57.8939 37.4977C57.5726 36.9524 57.0104 36.6797 56.2072 36.6797C54.8819 36.6797 53.5967 37.6865 52.3518 39.7002C51.1068 41.7138 50.1028 44.126 49.3397 46.9368C48.5767 49.7475 48.1951 52.2226 48.1951 54.3621C48.1951 56.3758 48.416 57.7392 48.8578 58.4524C49.2995 59.1236 50.1028 59.4592 51.2674 59.4592Z" fill="white"/>
<path d="M75.1501 65.2485C72.1783 65.2485 69.869 64.4514 68.2224 62.8573C66.5758 61.2212 65.7525 58.6831 65.7525 55.2431C65.7525 52.3485 66.2947 49.1602 67.3791 45.6782C68.5036 42.1963 70.2706 39.1968 72.6803 36.6797C75.1301 34.1207 78.2224 32.8412 81.9574 32.8412C84.367 32.8412 86.0738 33.3865 87.0779 34.4773C88.122 35.568 88.6441 36.9524 88.6441 38.6304C88.6441 40.0987 88.3429 41.2314 87.7405 42.0285C87.1381 42.8255 86.375 43.2241 85.4513 43.2241C84.7686 43.2241 84.0658 42.9724 83.3429 42.469C83.8248 41.0846 84.0658 39.847 84.0658 38.7563C84.0658 37.9592 83.9252 37.3299 83.6441 36.8685C83.363 36.407 82.9413 36.1763 82.3791 36.1763C81.1742 36.1763 79.9694 37.2041 78.7646 39.2597C77.5598 41.3153 76.5758 43.8114 75.8128 46.748C75.0497 49.6846 74.6682 52.3275 74.6682 54.6768C74.6682 56.7324 75.0096 58.1377 75.6923 58.8929C76.375 59.606 77.4795 59.9626 79.0056 59.9626C81.1742 59.9626 83.0216 59.4382 84.5477 58.3895C86.114 57.3407 87.8208 55.7465 89.6682 53.607H91.7164C87.2586 61.368 81.7365 65.2485 75.1501 65.2485Z" fill="white"/>
<path d="M112.306 65.2485C109.816 65.2485 107.929 64.6402 106.643 63.4236C105.358 62.1651 104.716 60.3821 104.716 58.0748C104.716 57.068 104.836 55.9773 105.077 54.8026L105.559 52.3485C105.72 51.6353 105.8 50.8592 105.8 50.0202C105.8 48.0065 105.077 46.9997 103.631 46.9997C102.989 46.9997 102.306 47.1885 101.583 47.566C100.9 47.9436 100.097 48.5309 99.1736 49.328L96.041 64.8709H87.3663L96.1013 22.0807L105.017 20.8221L100.499 42.9724L112.125 33.4075H118.089L106.041 42.1543C106.643 41.9865 107.306 41.9026 108.029 41.9026C110.198 41.9026 111.844 42.5948 112.969 43.9792C114.093 45.3636 114.656 47.1255 114.656 49.2651C114.656 50.146 114.575 50.9431 114.415 51.6563L113.752 54.8026C113.551 55.5577 113.451 56.229 113.451 56.8163C113.451 58.3685 114.234 59.1446 115.8 59.1446C117.005 59.1446 117.969 58.7041 118.692 57.8231C119.415 56.9002 120.137 55.4948 120.86 53.607H123.39C120.9 61.368 117.206 65.2485 112.306 65.2485Z" fill="white"/>
<path d="M129.449 65.2485C126.477 65.2485 124.168 64.4514 122.522 62.8573C120.875 61.2212 120.052 58.6831 120.052 55.2431C120.052 52.3485 120.594 49.1602 121.678 45.6782C122.763 42.1963 124.53 39.1968 126.979 36.6797C129.429 34.1207 132.542 32.8412 136.317 32.8412C140.734 32.8412 142.943 34.8548 142.943 38.8821C142.943 41.2314 142.301 43.3919 141.016 45.3636C139.73 47.3353 138.024 48.9294 135.895 50.146C133.767 51.3207 131.498 51.9919 129.088 52.1597C129.008 53.4182 128.967 54.2573 128.967 54.6768C128.967 56.7324 129.309 58.1377 129.992 58.8929C130.674 59.606 131.779 59.9626 133.305 59.9626C135.473 59.9626 137.321 59.4382 138.847 58.3895C140.413 57.3407 142.12 55.7465 143.967 53.607H146.016C141.558 61.368 136.036 65.2485 129.449 65.2485ZM129.57 49.1392C131.056 49.0553 132.461 48.5099 133.787 47.5031C135.152 46.4963 136.237 45.2168 137.04 43.6646C137.883 42.1124 138.305 40.4763 138.305 38.7563C138.305 37.0363 137.803 36.1763 136.799 36.1763C135.353 36.1763 133.927 37.4977 132.522 40.1407C131.156 42.7836 130.172 45.7831 129.57 49.1392Z" fill="white"/>
<path d="M153.352 80.6026C151.465 80.6026 149.798 79.9524 148.352 78.6519C146.947 77.3934 146.244 75.7782 146.244 73.8065C146.244 71.9607 146.686 70.4504 147.569 69.2758C148.453 68.1012 149.597 67.1782 151.003 66.507C152.409 65.8358 154.296 65.1226 156.666 64.3675L157.268 61.5987C155.22 64.0319 152.77 65.2485 149.919 65.2485C147.991 65.2485 146.425 64.6192 145.22 63.3607C144.055 62.1021 143.473 60.2143 143.473 57.6973C143.473 56.6485 143.633 55.2851 143.955 53.607L148.051 33.4075H156.726L152.388 54.8026C152.268 55.306 152.208 55.8304 152.208 56.3758C152.208 58.2216 152.81 59.1446 154.015 59.1446C155.139 59.1446 156.103 58.6621 156.907 57.6973C157.71 56.6904 158.352 55.327 158.834 53.607L162.931 33.4075H171.666L164.316 69.9051C163.513 73.9324 162.087 76.7221 160.039 78.2743C158.031 79.8265 155.802 80.6026 153.352 80.6026ZM151.967 75.0021C152.69 75.0021 153.372 74.6036 154.015 73.8065C154.658 73.0514 155.16 71.8138 155.521 70.0938L156.244 66.3812C154.115 67.1363 152.469 68.0173 151.304 69.0241C150.139 70.0309 149.557 71.3314 149.557 72.9256C149.557 73.429 149.798 73.8904 150.28 74.3099C150.762 74.7714 151.324 75.0021 151.967 75.0021Z" fill="white"/>
<path d="M190.957 67.7365C186.31 67.7365 182.682 66.2412 180.074 63.2505C177.485 60.2598 176.191 56.0709 176.191 50.6836C176.191 45.3577 177.446 41.0971 179.956 37.9016C182.466 34.6856 185.849 33.0776 190.104 33.0776C193.869 33.0776 196.84 34.45 199.017 37.1949C201.193 39.9397 202.282 43.6678 202.282 48.3791V50.8372H179.25C179.289 55.4256 180.309 58.9284 182.309 61.3455C184.329 63.7626 187.212 64.9711 190.957 64.9711C192.781 64.9711 194.379 64.838 195.752 64.5717C197.144 64.3054 198.899 63.7319 201.017 62.8511V65.6164C199.213 66.4358 197.546 66.9888 196.016 67.2756C194.487 67.5829 192.8 67.7365 190.957 67.7365ZM190.104 35.7815C187.025 35.7815 184.555 36.8466 182.692 38.977C180.829 41.0868 179.74 44.1389 179.427 48.1333H199.193C199.193 44.2618 198.389 41.2404 196.781 39.0691C195.173 36.8774 192.948 35.7815 190.104 35.7815Z" fill="white"/>
<path d="M243.56 50.3763C243.56 55.825 242.295 60.0857 239.765 63.1583C237.236 66.2104 233.745 67.7365 229.294 67.7365C226.49 67.7365 224.019 67.0298 221.881 65.6164C219.744 64.203 218.106 62.1751 216.969 59.5326C215.832 56.8902 215.263 53.8381 215.263 50.3763C215.263 44.9276 216.528 40.6874 219.057 37.6557C221.587 34.6036 225.058 33.0776 229.47 33.0776C233.863 33.0776 237.304 34.6241 239.795 37.7172C242.305 40.7898 243.56 45.0095 243.56 50.3763ZM218.322 50.3763C218.322 54.9647 219.283 58.5494 221.205 61.1304C223.146 63.6909 225.882 64.9711 229.411 64.9711C232.941 64.9711 235.667 63.6909 237.589 61.1304C239.53 58.5494 240.501 54.9647 240.501 50.3763C240.501 45.7674 239.52 42.193 237.559 39.6529C235.618 37.1129 232.882 35.8429 229.353 35.8429C225.823 35.8429 223.097 37.1129 221.175 39.6529C219.273 42.1725 218.322 45.7469 218.322 50.3763Z" fill="white"/>
<rect x="206.749" y="19.9268" width="4.6266" height="56.6614" rx="2" fill="#0074FD"/>
<rect width="4.286" height="18.9819" rx="1" transform="matrix(-0.539735 0.841835 -0.887251 -0.461288 225.904 81.5947)" fill="#0074FD"/>
<path d="M205.823 21.9268C205.823 20.8223 206.719 19.9268 207.823 19.9268H208.45C209.554 19.9268 210.45 20.8222 210.45 21.9268V75.4215C210.45 76.526 209.554 77.4215 208.45 77.4215H206.823C206.271 77.4215 205.823 76.9738 205.823 76.4215V21.9268Z" fill="#378EF4"/>
<path d="M224.484 81.9306C224.974 82.1854 225.13 82.7688 224.832 83.2337L223.598 85.1582C223.3 85.6231 222.661 85.7935 222.171 85.5387L206.286 77.2799L207.52 75.3555C208.116 74.4256 209.394 74.0849 210.374 74.5944L224.484 81.9306Z" fill="#378EF4"/>
<path d="M205.823 20.9268C205.823 20.3745 206.271 19.9268 206.823 19.9268H210.375C210.927 19.9268 211.375 20.3745 211.375 20.9268V31.4257C211.375 31.9779 210.927 32.4257 210.375 32.4257H206.823C206.271 32.4257 205.823 31.9779 205.823 31.4257V20.9268Z" fill="white"/>
<rect width="14.8082" height="5.32978" transform="matrix(0.887251 0.461288 -0.539735 0.841835 211.606 74.0884)" fill="white"/>
<rect width="14.8035" height="1.02546" transform="matrix(0.887251 0.461287 -0.539735 0.841835 211.603 74.0831)" fill="#E7E7E7"/>
<path d="M210.45 19.9268C210.961 19.9268 211.375 20.3411 211.375 20.8521V31.5003C211.375 32.0114 210.961 32.4257 210.45 32.4257V19.9268Z" fill="#E7E7E7"/>
</svg>
